<?xml version="1.0" encoding="UTF-8"?>
<svg version="1.1" xmlns="http://www.w3.org/2000/svg" width="152" height="148">
<path d="M0 0 C16.02566727 12.6154766 26.47875915 28.70814565 29.99609375 48.8984375 C31.60616923 71.93695196 27.98177199 92.4135399 12.37109375 110.37109375 C0.03001854 123.50378398 -16.06851244 133.78477252 -34.53662109 135.07543945 C-58.33292852 135.61991285 -77.98560203 131.83063065 -96.00390625 114.8984375 C-109.81470191 101.42016501 -117.94531581 84.04872478 -118.29663086 64.68701172 C-118.44123193 41.55441061 -112.06010961 23.30142219 -95.62890625 6.46484375 C-69.87183067 -18.01263352 -28.95459543 -20.25692112 0 0 Z " fill="#050403" transform="translate(118.00390625,13.1015625)"/>
<path d="M0 0 C0 1.32 0 2.64 0 4 C-1.94018555 5.6315918 -1.94018555 5.6315918 -4.63671875 7.19921875 C-5.60673828 7.76833984 -6.57675781 8.33746094 -7.57617188 8.92382812 C-8.60291016 9.50583984 -9.62964844 10.08785156 -10.6875 10.6875 C-11.69490234 11.28111328 -12.70230469 11.87472656 -13.74023438 12.48632812 C-21.31079654 16.86875916 -21.31079654 16.86875916 -24.44750977 17.46606445 C-27.77878097 18.16290712 -30.20428232 19.62976406 -33.140625 21.34375 C-33.99210114 21.83748108 -33.99210114 21.83748108 -34.86077881 22.34118652 C-36.66111575 23.38754362 -38.45543611 24.44377922 -40.25 25.5 C-41.47099645 26.21025072 -42.69234727 26.91989262 -43.9140625 27.62890625 C-49.26126581 30.41729331 -49.26126581 30.41729331 -54 34 C-55.66617115 34.04063832 -57.33388095 34.042721 -59 34 C-55.57142523 31.13522487 -52.12061062 28.79396436 -48.23046875 26.6015625 C-47.10495605 25.96347656 -45.97944336 25.32539062 -44.81982422 24.66796875 C-43.6090876 23.9869114 -42.39831202 23.3059233 -41.1875 22.625 C-38.67193493 21.20270926 -36.15811107 19.77735819 -33.64453125 18.3515625 C-32.69145081 17.81163666 -32.69145081 17.81163666 -31.71911621 17.26080322 C-27.42059659 14.82104761 -23.14596651 12.34356778 -18.88671875 9.8359375 C-17.23796753 8.86599854 -17.23796753 8.86599854 -15.5559082 7.87646484 C-13.46523357 6.64314493 -11.37646637 5.40658483 -9.28979492 4.16650391 C-8.35627197 3.61655762 -7.42274902 3.06661133 -6.4609375 2.5 C-5.64415527 2.0153125 -4.82737305 1.530625 -3.98583984 1.03125 C-2 0 -2 0 0 0 Z " fill="#EE9C00" transform="translate(107,64)"/>
<path d="M0 0 C0 0.99 0 1.98 0 3 C-1.94018555 4.51806641 -1.94018555 4.51806641 -4.63671875 6.1015625 C-5.60673828 6.67390625 -6.57675781 7.24625 -7.57617188 7.8359375 C-8.60291016 8.42632812 -9.62964844 9.01671875 -10.6875 9.625 C-12.19860352 10.5221875 -12.19860352 10.5221875 -13.74023438 11.4375 C-18.24291354 14.06480586 -21.87405336 16.0159578 -27 17 C-29.20141221 18.02045753 -29.20141221 18.02045753 -31.328125 19.328125 C-32.12863281 19.79863281 -32.92914063 20.26914063 -33.75390625 20.75390625 C-34.57761719 21.24761719 -35.40132812 21.74132812 -36.25 22.25 C-38.68870264 23.6929963 -41.12869498 25.13362031 -43.57226562 26.56835938 C-45.21379053 27.53637044 -46.84779026 28.51723905 -48.47460938 29.50976562 C-49.65506836 30.20875977 -49.65506836 30.20875977 -50.859375 30.921875 C-51.56030273 31.3456543 -52.26123047 31.76943359 -52.98339844 32.20605469 C-55.41681663 33.16410262 -56.58068502 32.87518685 -59 32 C-58.2678125 31.58492187 -57.535625 31.16984375 -56.78125 30.7421875 C-48.88862451 26.25090776 -41.03176856 21.70020605 -33.1875 17.125 C-32.1572168 16.52526367 -31.12693359 15.92552734 -30.06542969 15.30761719 C-25.29664236 12.52745173 -20.5389964 9.73304637 -15.81640625 6.875 C-14.64911987 6.17286377 -14.64911987 6.17286377 -13.45825195 5.45654297 C-12.02649362 4.59321406 -10.59894348 3.72285205 -9.17651367 2.84423828 C-5.74294769 0.77979961 -4.11450435 0 0 0 Z " fill="#EF9D00" transform="translate(107,59)"/>
<path d="M0 0 C0 1.32 0 2.64 0 4 C-1.94018555 5.6315918 -1.94018555 5.6315918 -4.63671875 7.19921875 C-5.60673828 7.76833984 -6.57675781 8.33746094 -7.57617188 8.92382812 C-8.60291016 9.50583984 -9.62964844 10.08785156 -10.6875 10.6875 C-11.69490234 11.28111328 -12.70230469 11.87472656 -13.74023438 12.48632812 C-21.29918878 16.86203968 -21.29918878 16.86203968 -24.51757812 17.49560547 C-27.49059111 18.09968147 -29.44922763 19.26830115 -32.01953125 20.87109375 C-32.95990234 21.44537109 -33.90027344 22.01964844 -34.86914062 22.61132812 C-36.82117023 23.82244138 -38.77170999 25.03595943 -40.72070312 26.25195312 C-46.13740623 29.55373871 -50.73714344 31.88083865 -57 33 C-54.93239 30.77560817 -52.96698353 29.27271019 -50.296875 27.8359375 C-49.57185791 27.44092041 -48.84684082 27.04590332 -48.09985352 26.63891602 C-47.32440186 26.22182373 -46.5489502 25.80473145 -45.75 25.375 C-39.95359583 22.20801188 -34.20788637 18.99196935 -28.5625 15.5625 C-22.63298707 11.97090466 -16.67461306 8.43237252 -10.6875 4.9375 C-9.85613525 4.44773682 -9.02477051 3.95797363 -8.16821289 3.45336914 C-7.39469482 3.00340576 -6.62117676 2.55344238 -5.82421875 2.08984375 C-5.13416748 1.68628662 -4.44411621 1.28272949 -3.7331543 0.86694336 C-2 0 -2 0 0 0 Z " fill="#F09E00" transform="translate(107,70)"/>
<path d="M0 0 C1.0209375 0.37125 1.0209375 0.37125 2.0625 0.75 C-1.10618999 4.13450282 -4.73017996 6.07845677 -8.75 8.3125 C-9.44931641 8.71146484 -10.14863281 9.11042969 -10.86914062 9.52148438 C-11.90264648 10.1005957 -11.90264648 10.1005957 -12.95703125 10.69140625 C-13.88672729 11.21263062 -13.88672729 11.21263062 -14.83520508 11.74438477 C-16.9375 12.75 -16.9375 12.75 -19.8347168 13.67724609 C-23.05440029 14.79041702 -25.65615299 16.20347755 -28.5625 17.97265625 C-29.59890625 18.59333984 -30.6353125 19.21402344 -31.703125 19.85351562 C-33.86110783 21.16055474 -36.01735882 22.47045746 -38.171875 23.78320312 C-39.20828125 24.40259766 -40.2446875 25.02199219 -41.3125 25.66015625 C-42.71628906 26.51299194 -42.71628906 26.51299194 -44.1484375 27.38305664 C-47.11734408 28.83814312 -49.66781048 29.37112834 -52.9375 29.75 C-50.24515698 26.61055308 -46.82974828 24.8793087 -43.25 22.9375 C-34.84691062 18.29915368 -26.55970861 13.4725012 -18.27661133 8.6237793 C-16.35085248 7.49671059 -14.42399533 6.37151561 -12.49584961 5.24853516 C-10.91436188 4.32218992 -9.33839499 3.38625526 -7.77172852 2.43505859 C-3.24977242 -0.27657638 -3.24977242 -0.27657638 0 0 Z " fill="#DD9200" transform="translate(100.9375,56.25)"/>
<path d="M0 0 C0 1.32 0 2.64 0 4 C-1.90844727 5.61572266 -1.90844727 5.61572266 -4.56640625 7.1640625 C-5.52740234 7.72867188 -6.48839844 8.29328125 -7.47851562 8.875 C-8.49623047 9.4525 -9.51394531 10.03 -10.5625 10.625 C-11.55314453 11.21023437 -12.54378906 11.79546875 -13.56445312 12.3984375 C-18.68967239 15.36799976 -23.27720698 17.55310516 -29 19 C-31.69215166 20.35294848 -31.69215166 20.35294848 -34.125 21.9375 C-34.93195313 22.44152344 -35.73890625 22.94554688 -36.5703125 23.46484375 C-38.24717131 24.52433814 -39.92288319 25.58564918 -41.59765625 26.6484375 C-44.39757785 28.22367794 -46.82922065 28.63130473 -50 29 C-47.44084745 26.10596909 -44.53055174 24.44606028 -41.1796875 22.55859375 C-40.60774658 22.234319 -40.03580566 21.91004425 -39.4465332 21.57594299 C-37.59182024 20.52536617 -35.73347563 19.48140362 -33.875 18.4375 C-31.33213134 17.0008179 -28.79102842 15.56102753 -26.25 14.12109375 C-25.62415009 13.76703461 -24.99830017 13.41297546 -24.35348511 13.04818726 C-18.44951818 9.70241522 -12.60538141 6.25850934 -6.80029297 2.74389648 C-2.21296265 0 -2.21296265 0 0 0 Z " fill="#EF9D00" transform="translate(107,76)"/>
<path d="M0 0 C0.57008789 0.37447266 1.14017578 0.74894531 1.72753906 1.13476562 C-2.08200883 4.35155654 -6.01432214 6.88016543 -10.33496094 9.32226562 C-10.94662109 9.67740234 -11.55828125 10.03253906 -12.18847656 10.3984375 C-16.8086758 13.03070236 -16.8086758 13.03070236 -19.1472168 13.55541992 C-21.92585227 14.31288138 -24.07982378 15.63925226 -26.55371094 17.11132812 C-28.06384766 17.99304688 -28.06384766 17.99304688 -29.60449219 18.89257812 C-31.71989677 20.13938872 -33.83188063 21.39202102 -35.94042969 22.65039062 C-36.9471875 23.235625 -37.95394531 23.82085937 -38.99121094 24.42382812 C-39.90837891 24.9673291 -40.82554688 25.51083008 -41.77050781 26.07080078 C-44.52082807 27.24038467 -45.54647691 27.22755045 -48.27246094 26.13476562 C-47.66063965 25.77874268 -47.04881836 25.42271973 -46.41845703 25.0559082 C-44.5631779 23.97593609 -42.70822985 22.8953951 -40.85351562 21.81445312 C-38.7016461 20.5612169 -36.54863454 19.30993972 -34.39453125 18.06054688 C-28.86509734 14.84624952 -23.36552819 11.59647797 -17.92089844 8.24023438 C-16.92783691 7.63397217 -15.93477539 7.02770996 -14.91162109 6.40307617 C-13.01002007 5.23920121 -11.11616267 4.06256279 -9.23095703 2.87231445 C-8.37324707 2.35048584 -7.51553711 1.82865723 -6.63183594 1.29101562 C-5.50986816 0.59202148 -5.50986816 0.59202148 -4.36523438 -0.12109375 C-2.27246094 -0.86523438 -2.27246094 -0.86523438 0 0 Z " fill="#F19E00" transform="translate(96.2724609375,52.865234375)"/>
<path d="M0 0 C0 1.32 0 2.64 0 4 C-1.86083984 5.58398438 -1.86083984 5.58398438 -4.4609375 7.09375 C-5.40839844 7.64933594 -6.35585937 8.20492187 -7.33203125 8.77734375 C-8.33621094 9.34582031 -9.34039062 9.91429688 -10.375 10.5 C-11.34050781 11.06847656 -12.30601563 11.63695313 -13.30078125 12.22265625 C-18.67598892 15.33234015 -24.01119705 17.98642246 -29.84277344 20.12768555 C-32.01759218 21.00711373 -33.88686956 22.07372163 -35.875 23.3125 C-39 25 -39 25 -41.1953125 24.60546875 C-41.79085937 24.40566406 -42.38640625 24.20585938 -43 24 C-42.36199463 23.6282666 -41.72398926 23.2565332 -41.06665039 22.87353516 C-39.15320886 21.75849201 -37.23988992 20.64323849 -35.32666016 19.52783203 C-33.14302278 18.2548874 -30.95910147 16.98242973 -28.77490234 15.71044922 C-23.73579991 12.77351254 -18.70117197 9.83050807 -13.69140625 6.84375 C-12.9120874 6.3801709 -12.13276855 5.9165918 -11.32983398 5.43896484 C-9.88575152 4.57836781 -8.44376759 3.71423733 -7.00415039 2.84619141 C-2.22165524 0 -2.22165524 0 0 0 Z " fill="#ED9C00" transform="translate(107,82)"/>
<path d="M0 0 C0.66 0.66 1.32 1.32 2 2 C1.42894531 2.32049316 0.85789063 2.64098633 0.26953125 2.97119141 C-12.34718359 10.05931797 -24.90853234 17.22911067 -37.3671875 24.59228516 C-38.80191406 25.43605713 -38.80191406 25.43605713 -40.265625 26.296875 C-41.10899414 26.79541992 -41.95236328 27.29396484 -42.82128906 27.80761719 C-45 29 -45 29 -48 30 C-47.04821606 26.50633963 -46.22092388 25.16327612 -43.26611328 22.97949219 C-42.12899902 22.34172852 -40.99188477 21.70396484 -39.8203125 21.046875 C-39.21113983 20.70118469 -38.60196716 20.35549438 -37.97433472 19.99932861 C-36.68871592 19.27330841 -35.39914052 18.55425563 -34.10595703 17.84179688 C-32.13086318 16.75323147 -30.16834633 15.64441554 -28.20703125 14.53125 C-18.26836398 8.94552367 -18.26836398 8.94552367 -14 8 C-11.54604297 6.68696643 -9.14621869 5.34747014 -6.75 3.9375 C-6.1003125 3.56044922 -5.450625 3.18339844 -4.78125 2.79492188 C-3.18494909 1.86765885 -1.59212471 0.93441544 0 0 Z " fill="#201500" transform="translate(100,71)"/>
<path d="M0 0 C0.495 0.99 0.495 0.99 1 2 C-2.05564587 3.82424612 -5.12059649 5.63225483 -8.1875 7.4375 C-9.05181641 7.95376953 -9.91613281 8.47003906 -10.80664062 9.00195312 C-11.64775391 9.49501953 -12.48886719 9.98808594 -13.35546875 10.49609375 C-14.12528076 10.95169678 -14.89509277 11.4072998 -15.68823242 11.87670898 C-18.13915576 13.06761597 -20.33663081 13.48481104 -23 14 C-24.86386571 14.88816946 -24.86386571 14.88816946 -26.55859375 16.03125 C-27.19216797 16.42957031 -27.82574219 16.82789062 -28.47851562 17.23828125 C-29.78174548 18.07764963 -31.08383611 18.9187895 -32.38476562 19.76171875 C-36.27135482 22.20020821 -39.32059931 23.59498232 -44 24 C-41.64891006 21.40170481 -39.19194803 19.83477628 -36.1328125 18.14453125 C-35.17036621 17.60787842 -34.20791992 17.07122559 -33.21630859 16.51831055 C-32.19617676 15.95539307 -31.17604492 15.39247559 -30.125 14.8125 C-22.42456451 10.53148866 -14.86221345 6.16873085 -7.5234375 1.29296875 C-4.75962803 -0.12316273 -3.06072665 -0.28176364 0 0 Z " fill="#EE9D00" transform="translate(92,50)"/>
<path d="M0 0 C-0.297873 3.12783182 -0.49344933 4.57377552 -2.94604492 6.63745117 C-3.78240479 7.10127197 -4.61876465 7.56509277 -5.48046875 8.04296875 C-6.8562207 8.81737305 -6.8562207 8.81737305 -8.25976562 9.60742188 C-9.22591797 10.12884766 -10.19207031 10.65027344 -11.1875 11.1875 C-12.60772461 11.98704102 -12.60772461 11.98704102 -14.05664062 12.80273438 C-18.62591326 15.33767628 -22.97169685 17.5057401 -28 19 C-28.845625 19.53625 -29.69125 20.0725 -30.5625 20.625 C-33.29984674 22.16914432 -34.90981733 22.2648728 -38 22 C-34.72970977 19.27726932 -31.48079828 17.00493261 -27.76171875 14.94140625 C-26.77623047 14.39033203 -25.79074219 13.83925781 -24.77539062 13.27148438 C-23.75638672 12.70751953 -22.73738281 12.14355469 -21.6875 11.5625 C-13.44083638 6.99571602 -13.44083638 6.99571602 -5.39453125 2.08984375 C-2 0 -2 0 0 0 Z " fill="#ED9C00" transform="translate(107,88)"/>
<path d="M0 0 C0.66 0.66 1.32 1.32 2 2 C1.29504395 2.39268066 0.59008789 2.78536133 -0.13623047 3.18994141 C-3.3834182 4.99996267 -6.62921435 6.81246577 -9.875 8.625 C-10.98359375 9.24246094 -12.0921875 9.85992187 -13.234375 10.49609375 C-19.15092738 13.80240243 -25.01859275 17.1669349 -30.81591797 20.67822266 C-33.73344348 22.44387022 -36.6768686 24.16097011 -39.625 25.875 C-40.64851563 26.47054687 -41.67203125 27.06609375 -42.7265625 27.6796875 C-43.47679687 28.11539063 -44.22703125 28.55109375 -45 29 C-45.33 27.68 -45.66 26.36 -46 25 C-42.33522991 22.91331742 -38.66784678 20.83126907 -35 18.75 C-33.97003906 18.16347656 -32.94007812 17.57695313 -31.87890625 16.97265625 C-26.32186942 13.82248887 -20.75022763 10.78159468 -15 8 C-12.89551969 6.95896714 -10.79132281 5.91736098 -8.6875 4.875 C-7.68074219 4.37742187 -6.67398438 3.87984375 -5.63671875 3.3671875 C-2.87840453 1.99796955 -2.87840453 1.99796955 0 0 Z " fill="#1A1100" transform="translate(98,60)"/>
<path d="M0 0 C0.825 0.268125 1.65 0.53625 2.5 0.8125 C-1.12465803 3.67164501 -4.99614578 6.04880047 -8.9375 8.4375 C-9.59298828 8.84484375 -10.24847656 9.2521875 -10.92382812 9.671875 C-14.51964699 11.85028483 -17.34342573 13.0407582 -21.5 13.8125 C-24.5706278 15.49865901 -27.50092611 17.35243799 -30.46484375 19.21875 C-33.56605488 20.84718519 -36.0388034 21.44110484 -39.5 21.8125 C-37.01583651 19.01971548 -34.28245277 17.4260389 -31.01953125 15.6328125 C-29.93736328 15.03339844 -28.85519531 14.43398438 -27.74023438 13.81640625 C-26.60908203 13.19636719 -25.47792969 12.57632813 -24.3125 11.9375 C-22.08879035 10.71284831 -19.86611099 9.48632373 -17.64453125 8.2578125 C-16.58766113 7.67443115 -15.53079102 7.0910498 -14.44189453 6.48999023 C-11.86957325 5.02323343 -9.39290027 3.47873433 -6.91796875 1.85546875 C-3.5 -0.1875 -3.5 -0.1875 0 0 Z " fill="#F19E00" transform="translate(85.5,47.1875)"/>
<path d="M0 0 C-0.30439472 3.07643334 -0.49351112 4.56372725 -2.88256836 6.62158203 C-3.69346924 7.07903809 -4.50437012 7.53649414 -5.33984375 8.0078125 C-6.23896484 8.51957031 -7.13808594 9.03132813 -8.06445312 9.55859375 C-9.48661133 10.33396484 -9.48661133 10.33396484 -10.9375 11.125 C-11.85080078 11.64964844 -12.76410156 12.17429687 -13.70507812 12.71484375 C-19.63739881 16.0315694 -25.41168709 18.35273809 -32 20 C-32.754021 20.18965332 -33.50804199 20.37930664 -34.28491211 20.57470703 C-34.85089111 20.71505371 -35.41687012 20.85540039 -36 21 C-33.91424446 18.75191161 -31.92345502 17.24997159 -29.2265625 15.80078125 C-28.48986328 15.39972168 -27.75316406 14.99866211 -26.99414062 14.58544922 C-26.21232422 14.16537598 -25.43050781 13.74530273 -24.625 13.3125 C-17.73076204 9.55844577 -11.02074883 5.62436731 -4.40625 1.3984375 C-2 0 -2 0 0 0 Z " fill="#E79800" transform="translate(107,94)"/>
<path d="M0 0 C0 0.66 0 1.32 0 2 C-0.74870361 2.42708252 -1.49740723 2.85416504 -2.26879883 3.29418945 C-17.20602536 11.81683857 -32.13173395 20.35736259 -47 29 C-47.33 28.34 -47.66 27.68 -48 27 C-44.25211891 22.61706128 -39.44296212 20.12693167 -34.5 17.3125 C-33.64535156 16.81427734 -32.79070312 16.31605469 -31.91015625 15.80273438 C-25.51651355 12.12713791 -25.51651355 12.12713791 -23.00439453 11.50878906 C-20.54076103 10.88342826 -18.70382889 9.79921289 -16.5234375 8.49609375 C-15.688125 8.00302734 -14.8528125 7.50996094 -13.9921875 7.00195312 C-12.69667969 6.22754883 -12.69667969 6.22754883 -11.375 5.4375 C-9.65598691 4.41143228 -7.93473861 3.38909704 -6.2109375 2.37109375 C-5.45087402 1.91661865 -4.69081055 1.46214355 -3.90771484 0.99389648 C-2 0 -2 0 0 0 Z " fill="#120C00" transform="translate(107,74)"/>
<path d="M0 0 C0 0.66 0 1.32 0 2 C-0.76570313 2.43530029 -0.76570313 2.43530029 -1.546875 2.87939453 C-16.08986448 11.15329834 -30.56075635 19.54647232 -45 28 C-45 25 -45 25 -43.328125 22.99609375 C-40.90597747 20.91938672 -38.5820725 19.52304024 -35.75 18.0625 C-31.62403802 15.89499464 -27.70349728 13.60216004 -23.8515625 10.98046875 C-22 10 -22 10 -19.75390625 9.6484375 C-15.781904 8.71318591 -12.73515629 6.60529297 -9.3125 4.4375 C-2.24886191 0 -2.24886191 0 0 0 Z " fill="#201500" transform="translate(98,55)"/>
<path d="M0 0 C0.56460938 0.38671875 1.12921875 0.7734375 1.7109375 1.171875 C-1.373073 4.43131272 -4.83756811 6.50688801 -8.6640625 8.796875 C-9.3240625 9.20421875 -9.9840625 9.6115625 -10.6640625 10.03125 C-14.24038575 12.18274327 -17.12079221 13.51717286 -21.2890625 14.171875 C-23.03472769 15.18753475 -24.78001753 16.20422936 -26.5078125 17.25 C-29.02187115 18.55113562 -31.49450143 18.8992349 -34.2890625 19.171875 C-32.18533897 16.90017974 -30.16881007 15.39904908 -27.4453125 13.9375 C-26.69846191 13.53112305 -25.95161133 13.12474609 -25.18212891 12.70605469 C-24.39241699 12.28227539 -23.60270508 11.85849609 -22.7890625 11.421875 C-16.41326913 7.96964722 -10.34927434 4.38650318 -4.453125 0.15625 C-2.2890625 -0.828125 -2.2890625 -0.828125 0 0 Z " fill="#EC9B00" transform="translate(80.2890625,43.828125)"/>
<path d="M0 0 C0 0.66 0 1.32 0 2 C-28.15153143 18.25714425 -28.15153143 18.25714425 -40 25 C-40.33 23.68 -40.66 22.36 -41 21 C-40.24074219 20.59007813 -39.48148437 20.18015625 -38.69921875 19.7578125 C-37.70535156 19.21898438 -36.71148437 18.68015625 -35.6875 18.125 C-34.70136719 17.59132813 -33.71523437 17.05765625 -32.69921875 16.5078125 C-29.90413542 14.99277874 -29.90413542 14.99277874 -27 13 C-25.97519531 12.74476562 -24.95039062 12.48953125 -23.89453125 12.2265625 C-18.96428838 10.90163265 -14.94644313 8.11016478 -10.6875 5.375 C-9.08970011 4.3581027 -7.48955242 3.34488192 -5.88671875 2.3359375 C-5.18764404 1.88782715 -4.48856934 1.4397168 -3.76831055 0.97802734 C-2 0 -2 0 0 0 Z " fill="#241800" transform="translate(107,80)"/>
<path d="M0 0 C0.66 0 1.32 0 2 0 C2 0.66 2 1.32 2 2 C1.4423999 2.31638428 0.8847998 2.63276855 0.31030273 2.95874023 C-2.3150281 4.4497987 -4.93899716 5.94322745 -7.5625 7.4375 C-8.51165283 7.97793945 -9.46080566 8.51837891 -10.4387207 9.07519531 C-16.87384271 12.75178815 -23.25603238 16.50213088 -29.55493164 20.40795898 C-33.78781151 23 -33.78781151 23 -36 23 C-36.33 23.99 -36.66 24.98 -37 26 C-37.99 26.33 -38.98 26.66 -40 27 C-40 25 -40 25 -38.25 23.125 C-37.5075 22.42375 -36.765 21.7225 -36 21 C-35.4225 20.34 -34.845 19.68 -34.25 19 C-30.32422871 15.51042552 -25.58494763 13.65195071 -20.76171875 11.66796875 C-16.54544987 9.86938102 -12.6018809 7.64541083 -8.625 5.375 C-7.90183594 4.96765625 -7.17867187 4.5603125 -6.43359375 4.140625 C-3.01438558 2.35168025 -3.01438558 2.35168025 0 0 Z " fill="#211600" transform="translate(105,86)"/>
<path d="M0 0 C0.33 0.66 0.66 1.32 1 2 C-2.07861544 3.8206048 -5.16365281 5.63003833 -8.25 7.4375 C-9.12269531 7.95376953 -9.99539062 8.47003906 -10.89453125 9.00195312 C-12.16103516 9.74155273 -12.16103516 9.74155273 -13.453125 10.49609375 C-14.22817383 10.95169678 -15.00322266 11.4072998 -15.80175781 11.87670898 C-17.90064564 12.94923041 -19.7071807 13.51090835 -22 14 C-22.99 14.33 -23.98 14.66 -25 15 C-25.66 14.34 -26.32 13.68 -27 13 C-25.91460937 12.39671875 -24.82921875 11.7934375 -23.7109375 11.171875 C-22.26555301 10.36471223 -20.82024454 9.55741332 -19.375 8.75 C-18.66214844 8.35425781 -17.94929688 7.95851563 -17.21484375 7.55078125 C-13.93731197 5.71656622 -10.74099955 3.86408338 -7.65625 1.71875 C-4.7713289 -0.14796365 -3.36210433 -0.39554169 0 0 Z " fill="#ED9C00" transform="translate(76,41)"/>
<path d="M0 0 C-0.84208008 0.40859253 -0.84208008 0.40859253 -1.70117188 0.82543945 C-4.12117389 2.06191244 -6.44472705 3.40525863 -8.78125 4.79296875 C-9.70083496 5.33800049 -10.62041992 5.88303223 -11.56787109 6.44458008 C-13.0192749 7.30732544 -13.0192749 7.30732544 -14.5 8.1875 C-16.48162079 9.36223231 -18.46339059 10.53671329 -20.4453125 11.7109375 C-21.39954102 12.27651367 -22.35376953 12.84208984 -23.33691406 13.42480469 C-28.21047381 16.30747864 -33.10231704 19.15851727 -38 22 C-38 19 -38 19 -36.625 17.125 C-32.1869194 13.53226809 -26.9581526 11.1074857 -21.62109375 9.109375 C-17.58015687 7.39905298 -13.8987677 5.04752963 -10.171875 2.74609375 C-6.63160805 0.64502228 -4.14001894 -0.48613859 0 0 Z " fill="#221600" transform="translate(91,49)"/>
<path d="M0 0 C0.66 0.33 1.32 0.66 2 1 C-1.67290771 5.30616766 -5.67958506 7.64286023 -10.6796875 10.23828125 C-13.20861482 11.58010033 -15.66964967 12.96369662 -18.1328125 14.41796875 C-18.8446167 14.83401367 -19.5564209 15.25005859 -20.28979492 15.67871094 C-21.70409851 16.50764686 -23.11330652 17.34534848 -24.5168457 18.19238281 C-29.51046753 21.08741459 -29.51046753 21.08741459 -32.21899414 20.60375977 C-32.80672607 20.40451904 -33.39445801 20.20527832 -34 20 C-32.83210938 19.34257813 -32.83210938 19.34257813 -31.640625 18.671875 C-30.52171875 18.03765625 -29.4028125 17.4034375 -28.25 16.75 C-27.6425293 16.40590088 -27.03505859 16.06180176 -26.40917969 15.70727539 C-22.46206007 13.45464113 -18.56288719 11.13581101 -14.6875 8.76171875 C-13.78741211 8.21225586 -12.88732422 7.66279297 -11.95996094 7.09667969 C-10.16219852 5.9959956 -8.36851204 4.88862468 -6.57910156 3.77441406 C-5.7537793 3.27006836 -4.92845703 2.76572266 -4.078125 2.24609375 C-3.33981445 1.78904053 -2.60150391 1.3319873 -1.84082031 0.86108398 C-1.23334961 0.57692627 -0.62587891 0.29276855 0 0 Z " fill="#E29500" transform="translate(82,71)"/>
<path d="M0 0 C-3.21589743 3.43606272 -6.93272116 5.45582314 -11 7.75 C-11.72445312 8.17410156 -12.44890625 8.59820312 -13.1953125 9.03515625 C-14.24332031 9.62876953 -14.24332031 9.62876953 -15.3125 10.234375 C-16.26576172 10.77916504 -16.26576172 10.77916504 -17.23828125 11.33496094 C-19 12 -19 12 -22 11 C-22 10.34 -22 9.68 -22 9 C-19.45325297 7.00399174 -16.59704907 5.45408616 -13.8125 3.8125 C-13.04357422 3.33619141 -12.27464844 2.85988281 -11.48242188 2.36914062 C-4.42396783 -1.81746173 -4.42396783 -1.81746173 0 0 Z " fill="#F19E00" transform="translate(103,57)"/>
<path d="M0 0 C-4.43728512 3.41285845 -9.16197705 6.27693361 -13.9375 9.1875 C-14.83146484 9.74630859 -15.72542969 10.30511719 -16.64648438 10.88085938 C-17.51466797 11.40873047 -18.38285156 11.93660156 -19.27734375 12.48046875 C-20.06359131 12.96410889 -20.84983887 13.44774902 -21.65991211 13.94604492 C-24.29494492 15.13284061 -26.1421298 15.20411098 -29 15 C-24.23310256 10.83150032 -18.84196918 7.82691078 -13.375 4.6875 C-12.42109375 4.12482422 -11.4671875 3.56214844 -10.484375 2.98242188 C-9.56914063 2.45583984 -8.65390625 1.92925781 -7.7109375 1.38671875 C-6.87868652 0.90420654 -6.04643555 0.42169434 -5.18896484 -0.07543945 C-3 -1 -3 -1 0 0 Z " fill="#DF9300" transform="translate(77,83)"/>
<path d="M0 0 C-3.8816295 3.10119606 -8.1165416 5.58602222 -12.375 8.125 C-13.1175 8.58003906 -13.86 9.03507812 -14.625 9.50390625 C-18.75854456 11.96504498 -22.09980529 13.61109566 -27 14 C-23.2312484 9.8727574 -18.30143533 7.50102319 -13.5 4.75 C-12.53707031 4.1828125 -11.57414062 3.615625 -10.58203125 3.03125 C-9.65777344 2.50015625 -8.73351562 1.9690625 -7.78125 1.421875 C-6.93626953 0.93299805 -6.09128906 0.44412109 -5.22070312 -0.05957031 C-3 -1 -3 -1 0 0 Z " fill="#D78D00" transform="translate(75,66)"/>
<path d="M0 0 C0.66 0.33 1.32 0.66 2 1 C2 1.66 2 2.32 2 3 C0.9275 3.515625 -0.145 4.03125 -1.25 4.5625 C-6.03133309 6.92764341 -10.53784042 9.70447145 -15.0703125 12.51171875 C-18.11252335 14.05716186 -20.62656959 14.62461828 -24 15 C-20.2240546 10.8573012 -15.25714953 8.49858094 -10.4375 5.75 C-9.46619141 5.1828125 -8.49488281 4.615625 -7.49414062 4.03125 C-6.56666016 3.50015625 -5.63917969 2.9690625 -4.68359375 2.421875 C-3.83337646 1.93299805 -2.98315918 1.44412109 -2.10717773 0.94042969 C-1.41180908 0.63008789 -0.71644043 0.31974609 0 0 Z " fill="#DF9200" transform="translate(81,90)"/>
<path d="M0 0 C0 0.66 0 1.32 0 2 C-9.24 7.28 -18.48 12.56 -28 18 C-28.33 16.68 -28.66 15.36 -29 14 C-24 12 -24 12 -21.8671875 11.25 C-16.9807806 9.11968637 -12.52612814 6.21760153 -7.97460938 3.45703125 C-7.23662109 3.01488281 -6.49863281 2.57273437 -5.73828125 2.1171875 C-5.06837158 1.71097168 -4.39846191 1.30475586 -3.70825195 0.88623047 C-2 0 -2 0 0 0 Z " fill="#2B1C00" transform="translate(107,74)"/>
<path d="M0 0 C0.66 0.66 1.32 1.32 2 2 C-5.59 6.29 -13.18 10.58 -21 15 C-21.33 13.68 -21.66 12.36 -22 11 C-20.51306641 10.64808594 -20.51306641 10.64808594 -18.99609375 10.2890625 C-14.57072225 9.02467064 -10.93712759 6.80852469 -7.0625 4.375 C-6.37865234 3.95476563 -5.69480469 3.53453125 -4.99023438 3.1015625 C-3.32224637 2.07510834 -1.66045953 1.03858859 0 0 Z " fill="#2E1E00" transform="translate(91,52)"/>
<path d="M0 0 C0.66 0.33 1.32 0.66 2 1 C-0.5684139 3.87732966 -3.50519165 5.66973594 -6.8125 7.625 C-7.82957031 8.23601562 -8.84664062 8.84703125 -9.89453125 9.4765625 C-13.0112807 11.00553393 -15.56800197 11.6203769 -19 12 C-15.77364542 8.54678751 -12.02667613 6.54225258 -7.9375 4.25 C-7.20466797 3.82589844 -6.47183594 3.40179688 -5.71679688 2.96484375 C-5.01490234 2.56910156 -4.31300781 2.17335937 -3.58984375 1.765625 C-2.94909912 1.40243164 -2.30835449 1.03923828 -1.64819336 0.66503906 C-1.10428955 0.44557617 -0.56038574 0.22611328 0 0 Z " fill="#E49600" transform="translate(65,57)"/>
<path d="M0 0 C-3.19973919 2.49210456 -6.53046199 4.65092951 -10 6.75 C-11.03125 7.38421875 -12.0625 8.0184375 -13.125 8.671875 C-16.27466334 10.12688252 -16.87006352 10.00245283 -20 9 C-17.23907588 7.29586336 -14.46486002 5.61469315 -11.6875 3.9375 C-10.50897461 3.20950195 -10.50897461 3.20950195 -9.30664062 2.46679688 C-8.54931641 2.01240234 -7.79199219 1.55800781 -7.01171875 1.08984375 C-6.31522217 0.66566162 -5.61872559 0.24147949 -4.90112305 -0.19555664 C-3 -1 -3 -1 0 0 Z " fill="#DB9000" transform="translate(68,64)"/>
<path d="M0 0 C0.66 0.33 1.32 0.66 2 1 C-3.61 6.61 -9.22 12.22 -15 18 C-15 12.50089132 -9.68936771 8.76735434 -6 5 C-4.05347234 3.22256464 -2.09090037 1.6083849 0 0 Z " fill="#555555" transform="translate(30,13)"/>
<path d="M0 0 C0.66 0.33 1.32 0.66 2 1 C1 4 1 4 -1.72265625 5.60546875 C-2.82480469 6.12753906 -3.92695312 6.64960937 -5.0625 7.1875 C-6.16722656 7.71730469 -7.27195313 8.24710938 -8.41015625 8.79296875 C-9.26480469 9.19128906 -10.11945312 9.58960937 -11 10 C-10.06854524 6.99302105 -9.43103204 5.332924 -6.90625 3.3828125 C-6.1121875 2.96773438 -5.318125 2.55265625 -4.5 2.125 C-3.7059375 1.69445312 -2.911875 1.26390625 -2.09375 0.8203125 C-1.4028125 0.54960938 -0.711875 0.27890625 0 0 Z " fill="#150E00" transform="translate(63,91)"/>
<path d="M0 0 C0.66 0.33 1.32 0.66 2 1 C-1.84919283 5.33034194 -5.72289646 7.6560756 -11 10 C-10.38635566 6.93177829 -9.48248059 5.34567135 -6.93359375 3.51953125 C-4.64582499 2.20856264 -2.45621072 0.96232137 0 0 Z " fill="#0E0900" transform="translate(68,64)"/>
<path d="M0 0 C-3.48018027 2.78414422 -7.0177685 5.00888425 -11 7 C-13.21875 6.609375 -13.21875 6.609375 -15 6 C-13.07010782 4.80017556 -11.13080772 3.61547182 -9.1875 2.4375 C-8.10855469 1.77621094 -7.02960938 1.11492187 -5.91796875 0.43359375 C-3 -1 -3 -1 0 0 Z " fill="#DC9100" transform="translate(79,100)"/>
<path d="M0 0 C0.556875 0.226875 1.11375 0.45375 1.6875 0.6875 C-0.49767099 3.09325607 -2.57169671 4.48285581 -5.5 5.875 C-6.21542969 6.21917969 -6.93085937 6.56335938 -7.66796875 6.91796875 C-8.21066406 7.17191406 -8.75335938 7.42585938 -9.3125 7.6875 C-8.35178241 4.45599539 -7.61838515 2.92898827 -4.9375 0.8125 C-2.3125 -0.3125 -2.3125 -0.3125 0 0 Z " fill="#110B00" transform="translate(82.3125,105.3125)"/>
<path d="M0 0 C0.66 0.33 1.32 0.66 2 1 C2 1.66 2 2.32 2 3 C0.61217515 3.8466034 -0.78569397 4.67675339 -2.1875 5.5 C-2.96480469 5.9640625 -3.74210937 6.428125 -4.54296875 6.90625 C-7.24103386 8.10729647 -9.0806982 8.20741043 -12 8 C-8.20182235 4.77730382 -4.42608146 2.25479622 0 0 Z " fill="#D88E00" transform="translate(81,102)"/>
<path d="M0 0 C-4.42236821 4.27495594 -9.19839226 5.51298598 -15 7 C-12.7360039 4.53282476 -10.40939756 2.89865861 -7.5 1.25 C-6.7265625 0.80140625 -5.953125 0.3528125 -5.15625 -0.109375 C-3 -1 -3 -1 0 0 Z " fill="#C98500" transform="translate(65,96)"/>
<path d="M0 0 C-8.20689655 7 -8.20689655 7 -13 7 C-13 6.34 -13 5.68 -13 5 C-10.91796875 3.45703125 -10.91796875 3.45703125 -8.1875 1.8125 C-7.29417969 1.26207031 -6.40085937 0.71164063 -5.48046875 0.14453125 C-3 -1 -3 -1 0 0 Z " fill="#E69700" transform="translate(77,89)"/>
<path d="M0 0 C-2.18517099 2.40575607 -4.25919671 3.79535581 -7.1875 5.1875 C-7.90292969 5.53167969 -8.61835937 5.87585937 -9.35546875 6.23046875 C-9.89816406 6.48441406 -10.44085938 6.73835938 -11 7 C-11 5.68 -11 4.36 -11 3 C-7.14243493 0.84694043 -4.44870215 -0.39253254 0 0 Z " fill="#140D00" transform="translate(66,56)"/>
<path d="M0 0 C-4.95 2.97 -4.95 2.97 -10 6 C-10.33 4.68 -10.66 3.36 -11 2 C-9.54494642 1.47007308 -8.08581873 0.9513211 -6.625 0.4375 C-5.81289062 0.14746094 -5.00078125 -0.14257812 -4.1640625 -0.44140625 C-2 -1 -2 -1 0 0 Z " fill="#1E1400" transform="translate(89,92)"/>
<path d="M0 0 C-6.59090909 5 -6.59090909 5 -10 5 C-10 4.34 -10 3.68 -10 3 C-3.375 -1.125 -3.375 -1.125 0 0 Z " fill="#E29500" transform="translate(75,66)"/>
<path d="M0 0 C0.66 0.33 1.32 0.66 2 1 C0.625 3 0.625 3 -1 5 C-1.66 5 -2.32 5 -3 5 C-3.33 5.99 -3.66 6.98 -4 8 C-4.99 8.33 -5.98 8.66 -7 9 C-7 7 -7 7 -5.1875 5.0625 C-4.465625 4.381875 -3.74375 3.70125 -3 3 C-2.4225 2.4225 -1.845 1.845 -1.25 1.25 C-0.8375 0.8375 -0.425 0.425 0 0 Z " fill="#2D1E00" transform="translate(72,104)"/>
<path d="M0 0 C0.66 0.33 1.32 0.66 2 1 C0.35 2.65 -1.3 4.3 -3 6 C-3.99 5.67 -4.98 5.34 -6 5 C-2.25 1.125 -2.25 1.125 0 0 Z " fill="#090600" transform="translate(68,70)"/>
<path d="M0 0 C-3.20336822 2.83374881 -5.78087253 3.5205537 -10 4 C-6.87839899 0.56623888 -4.64008112 -1.54669371 0 0 Z " fill="#D08900" transform="translate(67,101)"/>
<path d="M0 0 C0.66 0.33 1.32 0.66 2 1 C1.67 1.99 1.34 2.98 1 4 C-1.5625 5.1875 -1.5625 5.1875 -4 6 C-4 4.68 -4 3.36 -4 2 C-2.125 0.9375 -2.125 0.9375 0 0 Z " fill="#181000" transform="translate(70,99)"/>
<path d="M0 0 C-3.20336822 2.83374881 -5.78087253 3.5205537 -10 4 C-6.87839899 0.56623888 -4.64008112 -1.54669371 0 0 Z " fill="#BB7B00" transform="translate(56,65)"/>
<path d="M0 0 C-3.20336822 2.83374881 -5.78087253 3.5205537 -10 4 C-6.87839899 0.56623888 -4.64008112 -1.54669371 0 0 Z " fill="#C38000" transform="translate(56,59)"/>
<path d="M0 0 C0.66 0.33 1.32 0.66 2 1 C0.35 2.65 -1.3 4.3 -3 6 C-4.32 5.34 -5.64 4.68 -7 4 C-1.7265625 0.77734375 -1.7265625 0.77734375 0 0 Z " fill="#D68D00" transform="translate(82,71)"/>
<path d="M0 0 C0.66 0.33 1.32 0.66 2 1 C0.9024777 3.99324263 0.32317108 4.84610901 -2.625 6.25 C-3.40875 6.4975 -4.1925 6.745 -5 7 C-3.75023244 3.34683329 -3.32901247 2.21934164 0 0 Z " fill="#181000" transform="translate(62,67)"/>
</svg>
